<svg width="34" height="26" viewBox="0 0 34 26" fill="none" xmlns="http://www.w3.org/2000/svg">
<path d="M32.0712 23.1023H1.81101C1.05175 23.1023 0.435547 23.6915 0.435547 24.4174C0.435547 25.1433 1.05175 25.7325 1.81101 25.7325H32.0712C32.8304 25.7325 33.4467 25.1433 33.4467 24.4174C33.4467 23.6915 32.8304 23.1023 32.0712 23.1023Z" fill="black"/>
<path d="M32.1085 0.307129H13.3725C12.6337 0.307129 12.0342 0.896295 12.0342 1.62223C12.0342 2.34817 12.6337 2.93733 13.3725 2.93733H32.1085C32.8473 2.93733 33.4468 2.34817 33.4468 1.62223C33.4468 0.896295 32.8473 0.307129 32.1085 0.307129Z" fill="black"/>
<path d="M32.0712 8.19775H1.81101C1.05175 8.19775 0.435547 8.78692 0.435547 9.51286C0.435547 10.2388 1.05175 10.828 1.81101 10.828H32.0712C32.8304 10.828 33.4467 10.2388 33.4467 9.51286C33.4467 8.78692 32.8304 8.19775 32.0712 8.19775Z" fill="black"/>
<path d="M32.1085 16.0884H13.3725C12.6337 16.0884 12.0342 16.6775 12.0342 17.4035C12.0342 18.1294 12.6337 18.7186 13.3725 18.7186H32.1085C32.8473 18.7186 33.4468 18.1294 33.4468 17.4035C33.4468 16.6775 32.8473 16.0884 32.1085 16.0884Z" fill="black"/>
</svg>
