<?xml version="1.0" standalone="no"?><!DOCTYPE svg PUBLIC "-//W3C//DTD SVG 1.1//EN" "http://www.w3.org/Graphics/SVG/1.1/DTD/svg11.dtd">
<svg x="0.0000mm" y="0.0000mm" width="35.4540mm" height="26.4580mm" viewBox="0.0000 0.0000 35.4540 26.4580" version="1.1" xmlns="http://www.w3.org/2000/svg" shape-rendering="crispEdges">
<title>TBarCode - 11.12.1.16467</title>
<desc>BarCode licensed to MEM:TEC-IT Datenverarbeitung GmbH Internal License</desc>
<g fill="rgb(0%,0%,0%)">
</g>
<g fill="rgb(100%,100%,100%)">
<rect x="0.0000" y="0.0000" width="35.4542" height="26.4580" />
</g>
<g fill="rgb(0%,0%,0%)">
</g>
<g fill="rgb(0%,0%,0%)">
<rect x="0.0000" y="0.0000" width="0.5292" height="23.3222" />
<rect x="0.7937" y="0.0000" width="0.2646" height="23.3222" />
<rect x="1.5875" y="0.0000" width="0.7937" height="23.3222" />
<rect x="2.9104" y="0.0000" width="0.2646" height="23.3222" />
<rect x="3.9687" y="0.0000" width="0.2646" height="23.3222" />
<rect x="5.0271" y="0.0000" width="0.5292" height="23.3222" />
<rect x="5.8208" y="0.0000" width="0.7938" height="23.3222" />
<rect x="7.1437" y="0.0000" width="0.2646" height="23.3222" />
<rect x="7.9375" y="0.0000" width="0.5292" height="23.3222" />
<rect x="8.7312" y="0.0000" width="0.5292" height="23.3222" />
<rect x="9.7896" y="0.0000" width="0.2646" height="23.3222" />
<rect x="11.1125" y="0.0000" width="0.2646" height="23.3222" />
<rect x="11.6417" y="0.0000" width="0.5292" height="23.3222" />
<rect x="12.7000" y="0.0000" width="0.2646" height="23.3222" />
<rect x="13.4937" y="0.0000" width="0.2646" height="23.3222" />
<rect x="14.5521" y="0.0000" width="0.2646" height="23.3222" />
<rect x="15.0812" y="0.0000" width="1.0583" height="23.3222" />
<rect x="16.4042" y="0.0000" width="0.2646" height="23.3222" />
<rect x="17.4625" y="0.0000" width="0.2646" height="23.3222" />
<rect x="17.9917" y="0.0000" width="0.7937" height="23.3222" />
<rect x="19.5792" y="0.0000" width="0.5292" height="23.3222" />
<rect x="20.3729" y="0.0000" width="0.5292" height="23.3222" />
<rect x="21.4312" y="0.0000" width="0.5292" height="23.3222" />
<rect x="22.4896" y="0.0000" width="0.5292" height="23.3222" />
<rect x="23.2833" y="0.0000" width="0.2646" height="23.3222" />
<rect x="23.8125" y="0.0000" width="1.0583" height="23.3222" />
<rect x="25.1354" y="0.0000" width="0.7937" height="23.3222" />
<rect x="26.1937" y="0.0000" width="0.5292" height="23.3222" />
<rect x="27.2521" y="0.0000" width="0.2646" height="23.3222" />
<rect x="27.7812" y="0.0000" width="0.7937" height="23.3222" />
<rect x="29.1042" y="0.0000" width="1.0583" height="23.3222" />
<rect x="30.6917" y="0.0000" width="0.2646" height="23.3222" />
<rect x="31.2208" y="0.0000" width="0.2646" height="23.3222" />
<rect x="32.0146" y="0.0000" width="0.5292" height="23.3222" />
<rect x="33.3375" y="0.0000" width="0.7938" height="23.3222" />
<rect x="34.3958" y="0.0000" width="0.2646" height="23.3222" />
<rect x="34.9250" y="0.0000" width="0.5292" height="23.3222" />
</g>
<g fill="rgb(0%,0%,0%)">
<text x="17.7271" y="25.8700" transform="rotate(360 17.7271,25.8700)" text-anchor="middle" font-family="Arial" font-size="2.8222" >352661099546023</text>
</g>
</svg>
